<svg class="ldi-2gjuwq" width="200px"  height="200px"  xmlns="http://www.w3.org/2000/svg" xmlns:xlink="http://www.w3.org/1999/xlink" viewBox="0 0 100 100" preserveAspectRatio="xMidYMid" style="background: none;"><!--?xml version="1.0" encoding="utf-8"?--><!--Generator: Adobe Illustrator 21.0.0, SVG Export Plug-In . SVG Version: 6.00 Build 0)--><svg version="1.1" id="圖層_1" xmlns="http://www.w3.org/2000/svg" xmlns:xlink="http://www.w3.org/1999/xlink" x="0px" y="0px" viewBox="0 0 100 100" style="transform-origin: 50px 50px 0px;" xml:space="preserve"><g style="transform-origin: 50px 50px 0px;"><g style="transform-origin: 50px 50px 0px; transform: scale(1);"><g style="transform-origin: 50px 50px 0px;"><g><style type="text/css" class="ld ld-breath" style="transform-origin: 50px 50px 0px; animation-duration: 1s; animation-delay: -1s; animation-direction: normal;">.st0{fill:#D1D1D1;} .st1{fill:#454545;} .st2{fill:#464646;} .st3{fill:#474747;} .st4{fill:#494949;} .st5{fill:#D1D2D1;}</style><g class="ld ld-breath" style="transform-origin: 50px 50px 0px; animation-duration: 1s; animation-delay: -0.916667s; animation-direction: normal;"><path class="st0" d="M65.873,7.5H34.127c-4.828,0-8.756,3.928-8.756,8.756v67.488c0,4.829,3.928,8.756,8.756,8.756h31.747 c4.828,0,8.755-3.927,8.755-8.755V16.256C74.629,11.428,70.701,7.5,65.873,7.5z" fill="rgb(209, 209, 209)" style="fill: rgb(209, 209, 209);"></path></g><g class="ld ld-breath" style="transform-origin: 50px 50px 0px; animation-duration: 1s; animation-delay: -0.833333s; animation-direction: normal;"><path class="st2" d="M65.873,10.969H34.127c-2.908,0-5.286,2.379-5.286,5.286v67.488c0,2.908,2.379,5.286,5.286,5.286h31.747 c2.908,0,5.286-2.379,5.286-5.286V16.256C71.16,13.348,68.781,10.969,65.873,10.969z M41.583,15.942h16.835 c0.822,0,1.494,0.598,1.494,1.33s-0.672,1.33-1.494,1.33H41.583c-0.822,0-1.494-0.598-1.494-1.33 C40.089,16.541,40.761,15.942,41.583,15.942z M50.866,85.388h-1.731c-1.651,0-2.989-1.476-2.989-3.296 c0-1.82,1.338-3.296,2.989-3.296h1.731c1.651,0,2.989,1.476,2.989,3.296C53.854,83.912,52.516,85.388,50.866,85.388z M67.806,74.732 c0,0.9-0.736,1.635-1.635,1.635H33.83c-0.899,0-1.635-0.736-1.635-1.635V24.053c0-0.899,0.736-1.635,1.635-1.635h32.341 c0.899,0,1.635,0.736,1.635,1.635V74.732z" fill="#ff0000" style="fill: rgb(255, 0, 0);"></path></g><metadata xmlns:d="https://loading.io/stock/" class="ld ld-breath" style="transform-origin: 50px 50px 0px; animation-duration: 1s; animation-delay: -0.75s; animation-direction: normal;">
<d:name class="ld ld-breath" style="transform-origin: 50px 50px 0px; animation-duration: 1s; animation-delay: -0.666667s; animation-direction: normal;">smartphone</d:name>
<d:tags class="ld ld-breath" style="transform-origin: 50px 50px 0px; animation-duration: 1s; animation-delay: -0.583333s; animation-direction: normal;">device,mobile,portable,pds,cellphone,call,smartphone,map</d:tags>
<d:license class="ld ld-breath" style="transform-origin: 50px 50px 0px; animation-duration: 1s; animation-delay: -0.5s; animation-direction: normal;">cc0</d:license>
<d:slug class="ld ld-breath" style="transform-origin: 50px 50px 0px; animation-duration: 1s; animation-delay: -0.416667s; animation-direction: normal;">2gjuwq</d:slug>
</metadata></g></g></g></g><style type="text/css" class="ld ld-breath" style="transform-origin: 50px 50px 0px; animation-duration: 1s; animation-delay: -0.333333s; animation-direction: normal;">path,ellipse,circle,rect,polygon,polyline,line { stroke-width: 0; }@keyframes ld-breath {
  0% {
    -webkit-transform: scale(0.86);
    transform: scale(0.86);
  }
  50% {
    -webkit-transform: scale(1.06);
    transform: scale(1.06);
  }
  100% {
    -webkit-transform: scale(0.86);
    transform: scale(0.86);
  }
}
@-webkit-keyframes ld-breath {
  0% {
    -webkit-transform: scale(0.86);
    transform: scale(0.86);
  }
  50% {
    -webkit-transform: scale(1.06);
    transform: scale(1.06);
  }
  100% {
    -webkit-transform: scale(0.86);
    transform: scale(0.86);
  }
}
.ld.ld-breath {
  -webkit-animation: ld-breath 1s infinite;
  animation: ld-breath 1s infinite;
}
</style></svg></svg>